<svg xmlns="http://www.w3.org/2000/svg" viewBox="0 0 320 280" fill="none">
  <defs>
    <filter id="c-wob" x="-10%" y="-10%" width="120%" height="120%">
      <feTurbulence type="fractalNoise" baseFrequency="0.02" numOctaves="2" seed="7"></feTurbulence>
      <feDisplacementMap in="SourceGraphic" scale="3"></feDisplacementMap>
    </filter>
    <radialGradient id="c-body" cx="45%" cy="40%" r="70%">
      <stop offset="0%" stop-color="#6b4028"></stop>
      <stop offset="70%" stop-color="#4a2818"></stop>
      <stop offset="100%" stop-color="#2d1810"></stop>
    </radialGradient>
    <radialGradient id="c-cheek" cx="50%" cy="50%" r="50%">
      <stop offset="0%" stop-color="#000" stop-opacity="0.3"></stop>
      <stop offset="100%" stop-color="#000" stop-opacity="0"></stop>
    </radialGradient>
  </defs>
  <g filter="url(#c-wob)">
    
    <path d="M 60 160 Q 40 120 70 95 Q 85 60 120 75 Q 140 45 160 70 Q 185 50 205 80 Q 240 70 255 105 Q 280 130 260 170 Q 270 210 230 225 Q 200 245 160 235 Q 115 250 85 225 Q 45 210 60 160 Z" fill="url(#c-body)" stroke="#1a0e08" stroke-width="3.5"></path>
    
    <path d="M 92 92 L 80 48 L 122 70 Z" fill="#4a2818" stroke="#1a0e08" stroke-width="3.5"></path>
    <path d="M 215 78 L 242 48 L 240 90 Z" fill="#4a2818" stroke="#1a0e08" stroke-width="3.5"></path>
    
    <path d="M 98 82 L 93 58 L 114 72 Z" fill="#c8627e" opacity="0.6"></path>
    <path d="M 222 77 L 234 58 L 234 84 Z" fill="#c8627e" opacity="0.6"></path>
    
    <path d="M 100 130 Q 160 115 220 130 Q 215 155 195 160 Q 180 158 160 155 Q 140 158 125 160 Q 105 155 100 130 Z" fill="#1a0e08" opacity="0.5"></path>
    
    <ellipse cx="128" cy="145" rx="12" ry="15" fill="#a8cc3e"></ellipse>
    <ellipse cx="192" cy="145" rx="12" ry="15" fill="#a8cc3e"></ellipse>
    
    <ellipse cx="128" cy="145" rx="3" ry="12" fill="#1a0e08"></ellipse>
    <ellipse cx="192" cy="145" rx="3" ry="12" fill="#1a0e08"></ellipse>
    <circle cx="131" cy="140" r="2.5" fill="#fff"></circle>
    <circle cx="195" cy="140" r="2.5" fill="#fff"></circle>
    
    <path d="M 155 168 Q 160 173 165 168 Q 163 175 160 176 Q 157 175 155 168 Z" fill="#c8627e" stroke="#1a0e08" stroke-width="1.5"></path>
    
    <path d="M 145 183 Q 155 190 160 187 Q 165 190 175 183" stroke="#1a0e08" stroke-width="2.5" fill="none" stroke-linecap="round"></path>
    
    <path d="M 80 175 L 110 178 M 82 185 L 110 186 M 250 175 L 220 178 M 248 185 L 220 186" stroke="#1a0e08" stroke-width="1.5" stroke-linecap="round"></path>
  </g>
</svg>