<svg xmlns="http://www.w3.org/2000/svg" viewBox="0 0 320 280" fill="none">
  <defs>
    <filter id="p-wob" x="-10%" y="-10%" width="120%" height="120%">
      <feTurbulence type="fractalNoise" baseFrequency="0.02" numOctaves="2" seed="3"></feTurbulence>
      <feDisplacementMap in="SourceGraphic" scale="3"></feDisplacementMap>
    </filter>
    <radialGradient id="p-body" cx="45%" cy="40%" r="70%">
      <stop offset="0%" stop-color="#fcdbe6"></stop>
      <stop offset="70%" stop-color="#f4b6c9"></stop>
      <stop offset="100%" stop-color="#e89bb3"></stop>
    </radialGradient>
    <radialGradient id="p-cheek" cx="50%" cy="50%" r="50%">
      <stop offset="0%" stop-color="#ff8aa8" stop-opacity="0.7"></stop>
      <stop offset="100%" stop-color="#ff8aa8" stop-opacity="0"></stop>
    </radialGradient>
  </defs>
  <g filter="url(#p-wob)">
    
    <path d="M 60 160 Q 40 120 70 95 Q 85 60 120 75 Q 140 45 160 70 Q 185 50 205 80 Q 240 70 255 105 Q 280 130 260 170 Q 270 210 230 225 Q 200 245 160 235 Q 115 250 85 225 Q 45 210 60 160 Z" fill="url(#p-body)" stroke="#4a2c1a" stroke-width="3.5"></path>
    
    <path d="M 95 90 L 85 55 L 120 72 Z" fill="#f4b6c9" stroke="#4a2c1a" stroke-width="3.5"></path>
    <path d="M 215 80 L 240 55 L 240 90 Z" fill="#f4b6c9" stroke="#4a2c1a" stroke-width="3.5"></path>
    
    <path d="M 100 82 L 97 65 L 113 75 Z" fill="#c8627e"></path>
    <path d="M 222 79 L 232 65 L 232 85 Z" fill="#c8627e"></path>
    
    <ellipse cx="100" cy="175" rx="22" ry="14" fill="url(#p-cheek)"></ellipse>
    <ellipse cx="220" cy="175" rx="22" ry="14" fill="url(#p-cheek)"></ellipse>
    
    <ellipse cx="128" cy="145" rx="10" ry="14" fill="#4a2c1a"></ellipse>
    <ellipse cx="192" cy="145" rx="10" ry="14" fill="#4a2c1a"></ellipse>
    <circle cx="131" cy="140" r="3.5" fill="#fff"></circle>
    <circle cx="195" cy="140" r="3.5" fill="#fff"></circle>
    <circle cx="125" cy="150" r="1.5" fill="#fff"></circle>
    <circle cx="189" cy="150" r="1.5" fill="#fff"></circle>
    
    <path d="M 155 165 Q 160 170 165 165 Q 163 172 160 173 Q 157 172 155 165 Z" fill="#c8627e" stroke="#4a2c1a" stroke-width="1.5"></path>
    
    <path d="M 148 180 Q 160 190 172 180" stroke="#4a2c1a" stroke-width="2.5" fill="none" stroke-linecap="round"></path>
    
    <path d="M 250 100 L 258 92 M 254 88 L 262 96 M 253 96 L 261 92" stroke="#e89bb3" stroke-width="2.5" stroke-linecap="round"></path>
    <path d="M 55 110 L 63 102 M 59 98 L 67 106" stroke="#e89bb3" stroke-width="2.5" stroke-linecap="round"></path>
  </g>
</svg>