<svg xmlns="http://www.w3.org/2000/svg" viewBox="0 0 320 280" fill="none">
  <defs>
    <filter id="z-wob" x="-10%" y="-10%" width="120%" height="120%">
      <feTurbulence type="fractalNoise" baseFrequency="0.02" numOctaves="2" seed="11"></feTurbulence>
      <feDisplacementMap in="SourceGraphic" scale="3"></feDisplacementMap>
    </filter>
    <radialGradient id="z-body" cx="45%" cy="40%" r="70%">
      <stop offset="0%" stop-color="#b8c968"></stop>
      <stop offset="70%" stop-color="#8a9a3f"></stop>
      <stop offset="100%" stop-color="#5d6b2f"></stop>
    </radialGradient>
    <radialGradient id="z-cheek" cx="50%" cy="50%" r="50%">
      <stop offset="0%" stop-color="#3d4a1f" stop-opacity="0.4"></stop>
      <stop offset="100%" stop-color="#3d4a1f" stop-opacity="0"></stop>
    </radialGradient>
  </defs>
  <g filter="url(#z-wob)">
    
    <path d="M 60 160 Q 40 120 70 95 Q 85 65 120 80 Q 140 55 160 75 Q 185 55 205 82 Q 240 70 255 105 Q 280 130 260 170 Q 270 210 230 225 Q 200 245 160 235 Q 115 250 85 225 Q 45 210 60 160 Z" fill="url(#z-body)" stroke="#2d3614" stroke-width="3.5"></path>
    
    <path d="M 98 88 Q 90 70 100 62 Q 115 68 118 82 Q 110 90 98 88 Z" fill="#8a9a3f" stroke="#2d3614" stroke-width="3.5"></path>
    <path d="M 218 85 Q 228 68 218 60 Q 204 68 202 80 Q 210 88 218 85 Z" fill="#8a9a3f" stroke="#2d3614" stroke-width="3.5"></path>
    
    <path d="M 105 82 Q 103 72 110 70 Q 114 78 110 85 Z" fill="#5d6b2f"></path>
    <path d="M 211 80 Q 213 72 206 70 Q 202 78 206 85 Z" fill="#5d6b2f"></path>
    
    <ellipse cx="100" cy="180" rx="20" ry="12" fill="url(#z-cheek)"></ellipse>
    <ellipse cx="220" cy="180" rx="20" ry="12" fill="url(#z-cheek)"></ellipse>
    
    <path d="M 115 145 Q 128 138 142 145" stroke="#2d3614" stroke-width="3.5" fill="none" stroke-linecap="round"></path>
    <path d="M 178 145 Q 192 138 205 145" stroke="#2d3614" stroke-width="3.5" fill="none" stroke-linecap="round"></path>
    <ellipse cx="128" cy="149" rx="6" ry="4" fill="#2d3614"></ellipse>
    <ellipse cx="192" cy="149" rx="6" ry="4" fill="#2d3614"></ellipse>
    
    <path d="M 155 170 Q 160 175 165 170 Q 163 177 160 178 Q 157 177 155 170 Z" fill="#3d4a1f" stroke="#2d3614" stroke-width="1.5"></path>
    
    <path d="M 150 188 L 170 188" stroke="#2d3614" stroke-width="2.5" stroke-linecap="round"></path>
    
    <path d="M 155 108 L 160 118 L 165 108" stroke="#2d3614" stroke-width="2.5" fill="none" stroke-linecap="round"></path>
  </g>
</svg>